HIERARCHY
ROOT newVegas:Hips
{
	OFFSET 0.000000 96.479958 0.000000
	CHANNELS 6 Xposition Yposition Zposition Xrotation Yrotation Zrotation
	JOINT newVegas:Pelvis
	{
		OFFSET 0.000000 0.000000 0.000000
		CHANNELS 3 Xrotation Yrotation Zrotation
		JOINT newVegas:LeftUpLeg
		{
			OFFSET 18.735201 -5.666702 -4.541200
			CHANNELS 3 Xrotation Yrotation Zrotation
			JOINT newVegas:LeftLeg
			{
				OFFSET -0.021200 -31.938179 0.493100
				CHANNELS 3 Xrotation Yrotation Zrotation
				JOINT newVegas:LeftFoot
				{
					OFFSET 0.021200 -31.938179 -4.336299
					CHANNELS 3 Xrotation Yrotation Zrotation
					JOINT newVegas:LeftToeBase
					{
						OFFSET 0.943001 -26.722000 15.023500
						CHANNELS 3 Xrotation Yrotation Zrotation
						End Site
						{
							OFFSET 0.000000 30.670183 0.000000
						}
					}
				}
				JOINT newVegas:Left_PantLeg
				{
					OFFSET 0.663870 -9.044666 -1.108900
					CHANNELS 3 Xrotation Yrotation Zrotation
					End Site
					{
						OFFSET 1.415995 20.635357 0.000000
					}
				}
			}
		}
		JOINT newVegas:RightUpLeg
		{
			OFFSET -18.735201 -5.666702 -4.541200
			CHANNELS 3 Xrotation Yrotation Zrotation
			JOINT newVegas:RightLeg
			{
				OFFSET 0.018946 -31.938133 0.493100
				CHANNELS 3 Xrotation Yrotation Zrotation
				JOINT newVegas:RightFoot
				{
					OFFSET -0.018946 -31.938126 -4.336299
					CHANNELS 3 Xrotation Yrotation Zrotation
					JOINT newVegas:RightToeBase
					{
						OFFSET -0.943001 -26.722004 15.023500
						CHANNELS 3 Xrotation Yrotation Zrotation
						End Site
						{
							OFFSET 0.000000 30.670187 0.000000
						}
					}
				}
				JOINT newVegas:Right_PantLeg
				{
					OFFSET -0.661674 -9.044716 -1.108900
					CHANNELS 3 Xrotation Yrotation Zrotation
					End Site
					{
						OFFSET -1.415958 20.635269 0.000000
					}
				}
			}
		}
	}
	JOINT newVegas:Spine
	{
		OFFSET 0.000000 10.199997 -0.299500
		CHANNELS 3 Xrotation Yrotation Zrotation
		JOINT newVegas:Spine1
		{
			OFFSET 0.000000 11.900002 -1.516600
			CHANNELS 3 Xrotation Yrotation Zrotation
			JOINT newVegas:Spine2
			{
				OFFSET 0.000000 13.600006 -2.842500
				CHANNELS 3 Xrotation Yrotation Zrotation
				JOINT newVegas:Neck
				{
					OFFSET 0.000000 9.624100 -2.890100
					CHANNELS 3 Xrotation Yrotation Zrotation
					JOINT newVegas:Head
					{
						OFFSET 0.000000 14.068802 -1.351900
						CHANNELS 3 Xrotation Yrotation Zrotation
						JOINT newVegas:Hair_Back
						{
							OFFSET 0.000000 3.231903 -17.524799
							CHANNELS 3 Xrotation Yrotation Zrotation
							End Site
							{
								OFFSET 0.000000 19.849884 0.000000
							}
						}
						JOINT newVegas:Hair_Front
						{
							OFFSET 0.000000 31.260406 4.573800
							CHANNELS 3 Xrotation Yrotation Zrotation
							JOINT newVegas:Hair_Front1
							{
								OFFSET 0.000000 2.284103 11.993300
								CHANNELS 3 Xrotation Yrotation Zrotation
								JOINT newVegas:Hair_Front2
								{
									OFFSET 0.000000 2.284103 11.993300
									CHANNELS 3 Xrotation Yrotation Zrotation
									End Site
									{
										OFFSET 0.000000 12.208862 0.000000
									}
								}
							}
						}
						JOINT newVegas:Jowel
						{
							OFFSET 0.000000 -7.458206 6.864100
							CHANNELS 3 Xrotation Yrotation Zrotation
							End Site
							{
								OFFSET 0.000000 19.849884 0.000000
							}
						}
					}
				}
				JOINT newVegas:LeftShoulder
				{
					OFFSET 15.263000 10.923401 -0.547700
					CHANNELS 3 Xrotation Yrotation Zrotation
					JOINT newVegas:LeftArm
					{
						OFFSET 25.438599 -2.830597 -13.032500
						CHANNELS 3 Xrotation Yrotation Zrotation
						JOINT newVegas:LeftForeArm
						{
							OFFSET 29.960503 0.000000 0.000000
							CHANNELS 3 Xrotation Yrotation Zrotation
							JOINT newVegas:LeftHand
							{
								OFFSET 27.849251 0.000000 0.000000
								CHANNELS 3 Xrotation Yrotation Zrotation
								JOINT newVegas:LeftHandThumb1
								{
									OFFSET 4.487587 -3.305161 6.305391
									CHANNELS 3 Xrotation Yrotation Zrotation
									JOINT newVegas:LeftHandThumb2
									{
										OFFSET 5.480453 -3.164139 3.164143
										CHANNELS 3 Xrotation Yrotation Zrotation
										JOINT newVegas:LeftHandThumb3
										{
											OFFSET 5.159721 -2.978973 2.978967
											CHANNELS 3 Xrotation Yrotation Zrotation
											End Site
											{
												OFFSET 2.494507 5.926697 1.738678
											}
										}
									}
								}
								JOINT newVegas:LeftHandIndex1
								{
									OFFSET 18.578728 -0.527832 5.208049
									CHANNELS 3 Xrotation Yrotation Zrotation
									JOINT newVegas:LeftHandIndex2
									{
										OFFSET 3.192009 0.000000 0.000000
										CHANNELS 3 Xrotation Yrotation Zrotation
										JOINT newVegas:LeftHandIndex3
										{
											OFFSET 3.835129 0.000000 0.000000
											CHANNELS 3 Xrotation Yrotation Zrotation
											End Site
											{
												OFFSET -0.034599 3.816971 0.371180
											}
										}
									}
								}
								JOINT newVegas:LeftHandMiddle1
								{
									OFFSET 18.476105 0.000000 0.000000
									CHANNELS 3 Xrotation Yrotation Zrotation
									JOINT newVegas:LeftHandMiddle2
									{
										OFFSET 3.324875 0.000000 0.000000
										CHANNELS 3 Xrotation Yrotation Zrotation
										JOINT newVegas:LeftHandMiddle3
										{
											OFFSET 4.596550 0.000000 0.000000
											CHANNELS 3 Xrotation Yrotation Zrotation
											End Site
											{
												OFFSET 0.057701 4.578827 0.399218
											}
										}
									}
								}
								JOINT newVegas:LeftHandRing1
								{
									OFFSET 17.732719 0.121887 -4.201567
									CHANNELS 3 Xrotation Yrotation Zrotation
									JOINT newVegas:LeftHandRing2
									{
										OFFSET 2.733170 0.000000 0.000000
										CHANNELS 3 Xrotation Yrotation Zrotation
										JOINT newVegas:LeftHandRing3
										{
											OFFSET 3.178268 0.000000 0.000000
											CHANNELS 3 Xrotation Yrotation Zrotation
											End Site
											{
												OFFSET 0.119102 3.170624 0.185394
											}
										}
									}
								}
								JOINT newVegas:LeftHandPinky1
								{
									OFFSET 15.989624 -0.606689 -7.535461
									CHANNELS 3 Xrotation Yrotation Zrotation
									JOINT newVegas:LeftHandPinky2
									{
										OFFSET 2.538986 0.000000 0.000000
										CHANNELS 3 Xrotation Yrotation Zrotation
										JOINT newVegas:LeftHandPinky3
										{
											OFFSET 2.593102 0.000000 0.000000
											CHANNELS 3 Xrotation Yrotation Zrotation
											End Site
											{
												OFFSET -0.150902 2.584198 0.152708
											}
										}
									}
								}
							}
							JOINT newVegas:Left_Sleeve
							{
								OFFSET 0.267448 -0.649796 0.577675
								CHANNELS 3 Xrotation Yrotation Zrotation
								End Site
								{
									OFFSET 0.000000 15.991241 0.000000
								}
							}
							JOINT newVegas:Left_CapeC
							{
								OFFSET 15.715958 -8.608795 -6.935905
								CHANNELS 3 Xrotation Yrotation Zrotation
								JOINT newVegas:Left_CapeC1
								{
									OFFSET 0.000000 -8.688499 0.000000
									CHANNELS 3 Xrotation Yrotation Zrotation
									End Site
									{
										OFFSET 0.000000 8.688499 0.000000
									}
								}
							}
						}
						JOINT newVegas:Left_CapeB
						{
							OFFSET 26.118385 -8.608795 -7.079235
							CHANNELS 3 Xrotation Yrotation Zrotation
							JOINT newVegas:Left_CapeB1
							{
								OFFSET 0.000000 -8.688499 0.000000
								CHANNELS 3 Xrotation Yrotation Zrotation
								End Site
								{
									OFFSET 0.000000 8.688499 0.000000
								}
							}
						}
						JOINT newVegas:Left_CapeA
						{
							OFFSET 5.115639 -8.608795 -10.395809
							CHANNELS 3 Xrotation Yrotation Zrotation
							JOINT newVegas:Left_CapeA1
							{
								OFFSET 0.000000 -8.688499 0.000000
								CHANNELS 3 Xrotation Yrotation Zrotation
								End Site
								{
									OFFSET 0.000000 8.688499 0.000000
								}
							}
						}
					}
				}
				JOINT newVegas:RightShoulder
				{
					OFFSET -15.263000 10.923401 -0.547700
					CHANNELS 3 Xrotation Yrotation Zrotation
					JOINT newVegas:RightArm
					{
						OFFSET -25.438599 -2.830597 -13.032500
						CHANNELS 3 Xrotation Yrotation Zrotation
						JOINT newVegas:RightForeArm
						{
							OFFSET -29.960503 0.000000 0.000000
							CHANNELS 3 Xrotation Yrotation Zrotation
							JOINT newVegas:RightHand
							{
								OFFSET -27.849251 0.000000 0.000000
								CHANNELS 3 Xrotation Yrotation Zrotation
								JOINT newVegas:RightHandThumb1
								{
									OFFSET -4.487587 -3.305161 6.305391
									CHANNELS 3 Xrotation Yrotation Zrotation
									JOINT newVegas:RightHandThumb2
									{
										OFFSET -5.480453 -3.164139 3.164143
										CHANNELS 3 Xrotation Yrotation Zrotation
										JOINT newVegas:RightHandThumb3
										{
											OFFSET -5.159721 -2.978973 2.978967
											CHANNELS 3 Xrotation Yrotation Zrotation
											End Site
											{
												OFFSET -2.494507 5.926697 1.738678
											}
										}
									}
								}
								JOINT newVegas:RightHandIndex1
								{
									OFFSET -18.578728 -0.527832 5.208049
									CHANNELS 3 Xrotation Yrotation Zrotation
									JOINT newVegas:RightHandIndex2
									{
										OFFSET -3.192009 0.000000 0.000000
										CHANNELS 3 Xrotation Yrotation Zrotation
										JOINT newVegas:RightHandIndex3
										{
											OFFSET -3.835129 0.000000 0.000000
											CHANNELS 3 Xrotation Yrotation Zrotation
											End Site
											{
												OFFSET 0.034599 3.816971 0.371180
											}
										}
									}
								}
								JOINT newVegas:RightHandMiddle1
								{
									OFFSET -18.476105 0.000000 0.000000
									CHANNELS 3 Xrotation Yrotation Zrotation
									JOINT newVegas:RightHandMiddle2
									{
										OFFSET -3.324875 0.000000 0.000000
										CHANNELS 3 Xrotation Yrotation Zrotation
										JOINT newVegas:RightHandMiddle3
										{
											OFFSET -4.596550 0.000000 0.000000
											CHANNELS 3 Xrotation Yrotation Zrotation
											End Site
											{
												OFFSET -0.057701 4.578827 0.399218
											}
										}
									}
								}
								JOINT newVegas:RightHandRing1
								{
									OFFSET -17.732719 0.121887 -4.201567
									CHANNELS 3 Xrotation Yrotation Zrotation
									JOINT newVegas:RightHandRing2
									{
										OFFSET -2.733170 0.000000 0.000000
										CHANNELS 3 Xrotation Yrotation Zrotation
										JOINT newVegas:RightHandRing3
										{
											OFFSET -3.178268 0.000000 0.000000
											CHANNELS 3 Xrotation Yrotation Zrotation
											End Site
											{
												OFFSET -0.119102 3.170624 0.185394
											}
										}
									}
								}
								JOINT newVegas:RightHandPinky1
								{
									OFFSET -15.989624 -0.606689 -7.535461
									CHANNELS 3 Xrotation Yrotation Zrotation
									JOINT newVegas:RightHandPinky2
									{
										OFFSET -2.538986 0.000000 0.000000
										CHANNELS 3 Xrotation Yrotation Zrotation
										JOINT newVegas:RightHandPinky3
										{
											OFFSET -2.593102 0.000000 0.000000
											CHANNELS 3 Xrotation Yrotation Zrotation
											End Site
											{
												OFFSET 0.150902 2.584198 0.152708
											}
										}
									}
								}
							}
							JOINT newVegas:Right_CapeC
							{
								OFFSET -15.715958 -8.608795 -6.935905
								CHANNELS 3 Xrotation Yrotation Zrotation
								JOINT newVegas:Right_CapeC1
								{
									OFFSET 0.000000 -8.688499 0.000000
									CHANNELS 3 Xrotation Yrotation Zrotation
									End Site
									{
										OFFSET 0.000000 8.688499 0.000000
									}
								}
							}
							JOINT newVegas:Right_Sleeve
							{
								OFFSET -0.267448 -0.649994 0.577675
								CHANNELS 3 Xrotation Yrotation Zrotation
								End Site
								{
									OFFSET 0.000000 15.991302 0.000000
								}
							}
						}
						JOINT newVegas:Right_CapeA
						{
							OFFSET -5.115540 -8.608795 -10.395824
							CHANNELS 3 Xrotation Yrotation Zrotation
							JOINT newVegas:Right_CapeA1
							{
								OFFSET 0.000000 -8.688499 0.000000
								CHANNELS 3 Xrotation Yrotation Zrotation
								End Site
								{
									OFFSET 0.000000 8.688499 0.000000
								}
							}
						}
						JOINT newVegas:Right_CapeB
						{
							OFFSET -26.118187 -8.608795 -7.079266
							CHANNELS 3 Xrotation Yrotation Zrotation
							JOINT newVegas:Right_CapeB1
							{
								OFFSET 0.000000 -8.688499 0.000000
								CHANNELS 3 Xrotation Yrotation Zrotation
								End Site
								{
									OFFSET 0.000000 8.688499 0.000000
								}
							}
						}
					}
				}
				JOINT newVegas:Left_Collar
				{
					OFFSET 18.625099 8.655502 8.828100
					CHANNELS 3 Xrotation Yrotation Zrotation
					JOINT newVegas:Left_Collar1
					{
						OFFSET 14.783401 10.540405 -1.259500
						CHANNELS 3 Xrotation Yrotation Zrotation
						End Site
						{
							OFFSET 0.000000 18.199875 0.000000
						}
					}
				}
				JOINT newVegas:Collar_Back
				{
					OFFSET 0.000000 15.630707 -20.132601
					CHANNELS 3 Xrotation Yrotation Zrotation
					End Site
					{
						OFFSET 0.000000 22.523010 0.000000
					}
				}
				JOINT newVegas:Left_Peck
				{
					OFFSET 17.239599 -5.132599 25.482599
					CHANNELS 3 Xrotation Yrotation Zrotation
					End Site
					{
						OFFSET 0.000000 22.523010 0.000000
					}
				}
				JOINT newVegas:Right_Peck
				{
					OFFSET -17.239599 -5.132202 25.482599
					CHANNELS 3 Xrotation Yrotation Zrotation
					End Site
					{
						OFFSET 0.000000 22.523010 0.000000
					}
				}
				JOINT newVegas:Right_Collar
				{
					OFFSET -18.625099 8.655792 8.828100
					CHANNELS 3 Xrotation Yrotation Zrotation
					JOINT newVegas:Right_Collar1
					{
						OFFSET -14.783401 10.539993 -1.259500
						CHANNELS 3 Xrotation Yrotation Zrotation
						End Site
						{
							OFFSET 0.000000 18.199631 0.000000
						}
					}
				}
			}
		}
		JOINT newVegas:Belly
		{
			OFFSET 0.000000 -6.540398 9.014299
			CHANNELS 3 Xrotation Yrotation Zrotation
			End Site
			{
				OFFSET 0.000000 11.566666 0.000000
			}
		}
	}
	JOINT newVegas:ElvisFacialAnim_Joint
	{
		OFFSET 1.000000 -95.330101 -8.825800
		CHANNELS 3 Xrotation Yrotation Zrotation
		End Site
		{
			OFFSET 0.000000 35.315800 0.000000
		}
	}
}
MOTION
Frames: 4
Frame Time: 0.016667
3.624023 4.400520 2.867241 87.459664 0.113248 1.102496 0.000000 -0.000000 -0.000000 -21.882488 4.224514 12.157277 21.385725 10.569449 1.598141 50.908617 26.842893 -18.647058 0.000001 0.000003 -0.000002 -0.000001 0.000000 -0.000000 -19.188317 -5.475860 -15.153497 20.733234 -10.786253 -0.244661 50.292790 -25.946265 28.195972 -0.000001 0.000000 0.000002 -0.000000 0.000003 -0.000000 3.813893 0.558875 -1.165458 0.793258 0.138199 -0.141419 0.792535 0.141294 -0.141442 -2.227628 -5.475253 2.716027 -2.227609 -5.475248 2.716023 -0.000000 -0.000000 -0.000000 -2.227639 -5.475235 2.716023 -2.227673 -5.475324 2.716032 -0.000000 -0.000000 -0.000000 -0.000000 -0.000000 -0.000000 3.766324 -21.296513 -1.256999 15.600408 -18.626728 -61.954453 -0.000007 -18.654973 -0.000002 42.089040 7.016534 -15.751000 -1.540031 3.690188 6.142359 3.939044 7.948713 0.746797 0.000003 -0.000001 -0.000001 0.298629 2.009586 -16.903096 0.539680 2.676789 -22.793548 0.000002 -0.000003 0.000007 0.298072 2.007735 -16.887096 0.540427 2.678569 -22.809572 0.000001 0.000003 -0.000001 0.298629 2.009563 -16.903096 0.539683 2.676808 -22.793538 -0.000001 -0.000002 -0.000002 1.465421 5.893254 -16.473122 0.545007 -1.382212 -23.265291 0.000003 -0.000002 0.000002 -0.000001 0.000002 0.000001 -0.000001 0.000002 0.000001 -0.000002 0.000002 0.000001 -0.000002 0.000003 0.000002 -0.000002 0.000002 0.000002 -0.000002 0.000003 0.000002 -0.000004 0.000002 0.000002 0.640297 15.700663 9.197083 13.898624 -3.320481 53.523487 0.000000 31.875311 -0.000001 15.264773 -23.834165 10.590715 -1.849228 -3.581793 -6.586126 4.637198 -8.634114 -0.225399 -0.000000 -0.000002 -0.000001 0.480709 -2.544872 21.389420 1.003309 -3.603109 31.111303 -0.000003 0.000001 -0.000002 0.480715 -2.544857 21.389420 1.003313 -3.603103 31.111300 -0.000002 -0.000003 0.000000 0.480702 -2.544854 21.389424 1.003324 -3.603113 31.111293 0.000002 0.000002 -0.000000 0.480711 -2.544874 21.389417 1.003310 -3.603095 31.111310 0.000000 0.000005 0.000001 -0.000000 0.000000 0.000001 -0.000002 0.000001 0.000000 -0.000000 -0.000000 0.000001 -0.000000 -0.000001 0.000001 -0.000000 -0.000001 -0.000001 -0.000000 -0.000001 0.000001 -0.000000 -0.000001 0.000001 0.000000 -0.000000 0.000000 0.000000 -0.000000 0.000000 0.000000 -0.000000 0.000000 0.000000 -0.000000 0.000000 0.000000 -0.000000 0.000000 0.000000 -0.000000 0.000000 0.000000 -0.000000 0.000000 0.000000 -0.000000 0.000000 0.000000 -0.000000 -0.000000 
3.623912 4.402184 2.868706 87.450156 0.116952 1.101980 -0.000000 -0.000000 -0.000000 -21.876391 4.229026 12.162123 21.399148 10.568698 1.596179 50.890643 26.852274 -18.670459 0.000001 0.000003 -0.000001 0.000000 0.000001 0.000000 -19.186505 -5.477941 -15.153287 20.734521 -10.779576 -0.239733 50.299914 -25.948341 28.176427 -0.000002 0.000000 0.000001 0.000000 0.000001 -0.000001 3.822392 0.556014 -1.163919 0.795024 0.137604 -0.141028 0.794333 0.140705 -0.141052 -2.226609 -5.475255 2.714529 -2.226603 -5.475262 2.714536 -0.000000 -0.000000 -0.000000 -2.226505 -5.475264 2.714546 -2.226587 -5.475171 2.714515 -0.000000 -0.000001 0.000001 -0.000000 -0.000000 0.000000 3.774321 -21.342085 -1.254778 15.591976 -18.591049 -61.965272 -0.000002 -18.641601 0.000002 42.085471 7.002005 -15.750922 -1.540031 3.690197 6.142353 3.939042 7.948666 0.746802 0.000001 0.000000 -0.000003 0.298632 2.009598 -16.903099 0.539678 2.676793 -22.793548 0.000001 -0.000002 0.000004 0.298072 2.007730 -16.887096 0.540418 2.678581 -22.809564 -0.000000 -0.000001 -0.000002 0.298635 2.009588 -16.903098 0.539681 2.676791 -22.793543 -0.000003 -0.000001 0.000000 1.465421 5.893247 -16.473117 0.545009 -1.382184 -23.265298 -0.000001 -0.000003 -0.000000 -0.000002 -0.000001 0.000001 -0.000002 -0.000001 0.000001 -0.000003 -0.000000 0.000001 -0.000001 -0.000001 -0.000000 -0.000001 -0.000001 -0.000000 -0.000001 -0.000001 -0.000000 -0.000002 -0.000001 -0.000000 0.641010 15.689945 9.189850 13.871900 -3.307262 53.531550 0.000001 31.852099 -0.000003 15.245652 -23.874475 10.516447 -1.849262 -3.581808 -6.586144 4.637199 -8.634138 -0.225402 -0.000002 0.000001 0.000001 0.480682 -2.544880 21.389400 1.003308 -3.603116 31.111283 -0.000001 -0.000002 -0.000002 0.480685 -2.544877 21.389398 1.003305 -3.603105 31.111310 0.000003 -0.000001 0.000003 0.480681 -2.544875 21.389398 1.003308 -3.603113 31.111290 0.000001 -0.000003 0.000000 0.480677 -2.544904 21.389396 1.003302 -3.603100 31.111307 0.000001 0.000003 -0.000001 0.000000 0.000001 -0.000002 0.000000 -0.000002 -0.000002 0.000000 0.000001 -0.000001 -0.000001 0.000001 -0.000002 -0.000001 0.000001 -0.000002 -0.000001 0.000001 -0.000002 -0.000001 0.000001 -0.000002 0.000000 -0.000000 0.000000 0.000000 -0.000000 0.000000 0.000000 -0.000000 0.000000 0.000000 -0.000000 0.000000 0.000000 -0.000000 0.000000 0.000000 -0.000000 0.000000 0.000000 -0.000000 0.000000 -0.000000 -0.000000 -0.000000 -0.000000 -0.000000 -0.000000 
3.623276 4.405106 2.867989 87.457861 0.121602 1.105878 -0.000000 0.000000 -0.000000 -21.880948 4.224390 12.153631 21.403258 10.566887 1.607852 50.881310 26.863476 -18.720136 -0.000000 0.000002 -0.000001 -0.000001 -0.000001 0.000001 -19.190327 -5.480123 -15.161830 20.733983 -10.785786 -0.238249 50.301509 -25.944421 28.194505 -0.000004 0.000002 0.000002 -0.000000 -0.000000 -0.000001 3.812879 0.552210 -1.164460 0.792723 0.136766 -0.140974 0.792048 0.139859 -0.141001 -2.222886 -5.475242 2.712838 -2.222875 -5.475242 2.712838 -0.000000 -0.000001 0.000000 -2.222892 -5.475248 2.712840 -2.222877 -5.475244 2.712845 0.000000 0.000001 -0.000002 -0.000000 -0.000001 0.000000 3.780978 -21.376643 -1.256570 15.556881 -18.576976 -61.979698 0.000004 -18.573173 -0.000007 42.065202 6.975414 -15.756063 -1.540036 3.690188 6.142351 3.939052 7.948721 0.746807 0.000001 -0.000001 -0.000004 0.298628 2.009578 -16.903098 0.539666 2.676796 -22.793555 0.000001 0.000001 -0.000001 0.298072 2.007728 -16.887100 0.540424 2.678559 -22.809577 0.000001 0.000000 0.000002 0.298629 2.009579 -16.903103 0.539675 2.676779 -22.793555 0.000000 0.000001 -0.000001 1.465417 5.893257 -16.473122 0.545014 -1.382195 -23.265296 -0.000001 -0.000000 0.000003 0.000001 0.000001 -0.000001 0.000001 0.000001 -0.000001 0.000001 0.000001 -0.000001 0.000000 -0.000003 -0.000001 0.000001 -0.000003 -0.000001 0.000000 -0.000003 -0.000001 -0.000001 -0.000003 -0.000001 0.640461 15.698715 9.195479 13.865610 -3.329056 53.534913 0.000005 31.844012 -0.000003 15.261231 -23.895905 10.436543 -1.849246 -3.581793 -6.586147 4.637199 -8.634139 -0.225402 -0.000000 0.000000 -0.000000 0.480679 -2.544897 21.389388 1.003323 -3.603113 31.111327 -0.000002 0.000004 -0.000002 0.480692 -2.544884 21.389390 1.003317 -3.603110 31.111317 0.000002 -0.000001 0.000003 0.480688 -2.544876 21.389400 1.003321 -3.603115 31.111314 -0.000004 -0.000001 0.000001 0.480684 -2.544909 21.389393 1.003317 -3.603101 31.111324 0.000004 -0.000000 -0.000001 0.000003 -0.000001 -0.000000 0.000003 -0.000001 0.000002 0.000003 -0.000001 0.000001 0.000001 0.000001 0.000001 0.000001 0.000001 0.000001 0.000001 0.000001 0.000001 0.000001 0.000001 0.000001 -0.000000 0.000000 -0.000000 -0.000000 0.000000 -0.000000 -0.000000 0.000000 -0.000000 -0.000000 0.000000 -0.000000 -0.000000 0.000000 -0.000000 -0.000000 0.000000 -0.000000 -0.000000 0.000000 -0.000000 -0.000000 -0.000000 -0.000000 -0.000000 0.000000 -0.000000 
3.622147 4.408554 2.865631 87.469219 0.123996 1.110544 0.000000 0.000000 -0.000000 -21.891316 4.216239 12.139973 21.399949 10.565492 1.622542 50.886682 26.869954 -18.746035 -0.000000 0.000000 -0.000001 0.000000 -0.000001 -0.000001 -19.183119 -5.483113 -15.170784 20.723887 -10.808022 -0.244019 50.298783 -25.935857 28.241073 -0.000001 0.000003 0.000000 -0.000000 -0.000001 -0.000001 3.801246 0.549556 -1.164565 0.789975 0.136171 -0.140839 0.789274 0.139252 -0.140869 -2.221264 -5.475089 2.711371 -2.221236 -5.475089 2.711370 -0.000000 0.000000 -0.000001 -2.221260 -5.475092 2.711371 -2.221260 -5.475080 2.711365 0.000001 0.000001 -0.000000 -0.000000 0.000000 -0.000000 3.780675 -21.372241 -1.259638 15.494909 -18.603292 -61.991753 0.000015 -18.436602 -0.000003 42.055551 6.923404 -15.795209 -1.540037 3.690201 6.142353 3.939043 7.948686 0.746800 0.000000 0.000001 -0.000001 0.298625 2.009580 -16.903098 0.539674 2.676810 -22.793537 -0.000000 -0.000003 0.000001 0.298072 2.007759 -16.887098 0.540424 2.678543 -22.809564 -0.000001 0.000000 0.000000 0.298629 2.009589 -16.903099 0.539684 2.676788 -22.793545 0.000001 -0.000000 -0.000004 1.465419 5.893261 -16.473124 0.545005 -1.382200 -23.265289 -0.000000 0.000002 -0.000002 -0.000002 0.000000 -0.000000 -0.000002 0.000000 -0.000000 -0.000003 0.000001 0.000000 -0.000004 0.000000 0.000001 -0.000003 0.000000 0.000001 -0.000004 0.000000 0.000001 -0.000005 -0.000000 0.000001 0.640992 15.712335 9.191115 13.846821 -3.359458 53.548823 0.000008 31.824471 -0.000008 15.286109 -23.918035 10.367433 -1.849242 -3.581797 -6.586131 4.637194 -8.634122 -0.225395 0.000002 0.000000 0.000001 0.480696 -2.544866 21.389422 1.003308 -3.603110 31.111317 -0.000001 -0.000002 0.000002 0.480695 -2.544862 21.389420 1.003306 -3.603099 31.111314 0.000002 0.000001 -0.000000 0.480701 -2.544860 21.389424 1.003310 -3.603100 31.111324 -0.000000 -0.000001 0.000001 0.480694 -2.544872 21.389426 1.003299 -3.603109 31.111314 -0.000003 0.000003 -0.000000 -0.000003 0.000001 0.000002 -0.000004 -0.000000 0.000001 -0.000003 0.000001 0.000003 0.000001 0.000000 -0.000002 0.000001 0.000001 -0.000001 0.000001 0.000000 -0.000002 0.000001 -0.000000 -0.000002 -0.000000 -0.000000 0.000000 -0.000000 -0.000000 0.000000 -0.000000 -0.000000 0.000000 -0.000000 -0.000000 0.000000 -0.000000 -0.000000 0.000000 -0.000000 -0.000000 0.000000 -0.000000 -0.000000 0.000000 0.000000 -0.000000 0.000000 0.000000 0.000000 -0.000000 
